<?xml version="1.0" standalone="no"?>
<!DOCTYPE svg PUBLIC "-//W3C//DTD SVG 20010904//EN"
 "http://www.w3.org/TR/2001/REC-SVG-20010904/DTD/svg10.dtd">
<svg version="1.0" xmlns="http://www.w3.org/2000/svg"
 width="300.000000pt" height="300.000000pt" viewBox="0 0 300.000000 300.000000"
 preserveAspectRatio="xMidYMid meet">
<metadata>
Created by potrace 1.10, written by Peter Selinger 2001-2011
</metadata>
<g transform="translate(0.000000,300.000000) scale(0.100000,-0.100000)"
fill="#000000" stroke="none">
<path d="M237 2990 c-178 -5 -179 -5 -201 -31 l-23 -27 -8 -1059 c-4 -582 -4
-1228 0 -1435 l8 -377 24 -23 25 -23 1411 -3 c992 -2 1423 0 1449 8 21 6 43
21 50 33 10 17 13 317 13 1455 l0 1434 -32 29 -33 29 -1252 -2 c-689 -1 -1333
-4 -1431 -8z m2706 -1485 l-3 -1445 -1445 -3 -1445 -2 0 1448 0 1447 1448 0
1447 0 -2 -1445z"/>
<path d="M1568 2763 c56 -54 36 -129 -40 -148 -26 -7 -28 -5 -28 23 0 44 -9
61 -41 77 -44 23 -53 18 -24 -16 21 -26 25 -40 23 -77 l-3 -46 -59 -23 c-32
-12 -67 -30 -77 -39 -17 -16 -30 -16 -132 -5 -170 18 -305 -5 -357 -61 -11
-12 -20 -30 -20 -41 0 -17 2 -17 28 3 25 21 27 21 31 3 2 -10 8 -24 14 -32 9
-10 6 -18 -11 -31 -44 -36 -67 -134 -42 -181 15 -27 30 -24 30 7 0 14 4 23 10
19 6 -3 10 -20 10 -36 0 -42 -39 -56 -94 -35 -47 19 -54 15 -32 -19 11 -17 29
-27 56 -31 31 -5 40 -11 40 -26 0 -21 -19 -22 -62 -3 -26 11 -22 -12 7 -41 32
-32 32 -39 0 -18 -29 19 -35 2 -9 -27 14 -16 13 -18 -18 -27 -62 -19 -87 -22
-93 -12 -12 20 -25 -1 -25 -41 0 -33 4 -41 26 -49 41 -16 120 -12 176 10 53
20 65 20 53 0 -10 -16 -87 -50 -97 -44 -14 9 -21 -26 -8 -41 20 -24 5 -28 -30
-10 -38 20 -44 16 -31 -18 14 -35 48 -56 107 -63 100 -13 95 -46 -7 -43 -38 1
-72 -1 -77 -5 -10 -10 27 -36 52 -36 12 -1 30 -14 41 -31 11 -17 38 -41 60
-52 22 -12 42 -23 44 -24 1 -1 -4 -12 -13 -25 -22 -31 -20 -103 4 -156 21 -47
40 -48 40 -1 0 22 8 34 32 49 24 14 35 16 45 8 22 -18 15 -34 -44 -102 -51
-58 -61 -65 -85 -60 -14 3 -45 0 -67 -6 -40 -10 -41 -10 -121 50 -45 33 -93
63 -106 66 -15 4 -48 -3 -82 -15 -54 -20 -60 -21 -94 -6 -47 19 -82 19 -139 0
-24 -7 -63 -19 -86 -25 l-43 -11 0 -389 0 -390 761 0 c839 0 769 -5 718 55 -9
11 -20 31 -24 45 -4 14 -32 54 -61 90 -30 35 -54 68 -54 72 0 18 98 134 123
146 24 12 60 55 70 86 2 5 46 -16 98 -47 80 -48 102 -57 143 -57 40 0 52 5 75
29 15 16 33 48 41 71 11 32 20 42 42 47 43 8 55 29 37 62 -15 26 -15 28 12 43
27 16 28 20 22 66 -5 49 -5 50 24 56 35 8 93 42 93 56 0 5 -13 24 -29 43 l-30
33 45 83 c46 88 60 131 43 141 -5 4 0 15 12 26 l21 19 -3 -31 c-2 -17 2 -39
10 -47 18 -23 10 -60 -17 -72 -57 -25 20 -45 94 -25 23 7 52 23 64 35 19 20
21 31 16 77 -10 92 -5 150 15 156 8 3 21 13 30 24 15 20 16 19 42 -12 44 -52
33 -94 -33 -131 -50 -28 -42 -43 18 -34 54 8 134 46 168 80 43 43 26 106 -46
168 -40 34 -40 35 -25 63 23 44 19 60 -30 111 -45 47 -45 47 -30 79 19 40 8
74 -37 121 l-30 31 22 30 c30 41 31 104 1 136 -12 13 -41 32 -64 41 -23 10
-61 27 -84 37 -50 22 -93 24 -93 4 0 -7 9 -16 20 -19 11 -3 20 -10 20 -15 0
-14 -34 -25 -38 -12 -2 6 -13 19 -24 30 -16 15 -18 22 -9 38 17 32 13 61 -13
87 -21 21 -22 26 -9 37 18 15 13 89 -8 114 -31 37 -92 58 -174 58 -85 1 -135
-8 -135 -24 0 -6 21 -10 46 -10 48 0 114 -34 97 -51 -4 -4 -46 -10 -93 -14
-207 -14 -237 -20 -275 -55 -20 -18 -135 -33 -135 -17 0 4 4 7 9 7 19 0 21 34
3 54 -11 12 -26 34 -33 50 -8 17 -30 39 -49 50 l-35 20 33 -31z m667 -38 c45
-22 61 -54 46 -95 -8 -25 -7 -38 4 -60 8 -16 15 -50 15 -76 0 -39 5 -51 34
-80 19 -19 41 -34 49 -34 10 0 13 -7 10 -20 -14 -51 57 -68 101 -24 14 15 26
31 26 35 0 15 32 10 52 -8 21 -19 23 -58 3 -93 -22 -38 -18 -62 16 -108 28
-38 30 -46 24 -94 -6 -51 -5 -55 30 -96 35 -40 36 -45 30 -90 -6 -47 -5 -50
38 -98 65 -72 67 -102 11 -132 -20 -11 -22 -8 -28 30 -7 43 -60 108 -89 108
-8 0 -34 -17 -58 -39 l-44 -38 0 -97 c0 -85 -3 -99 -19 -112 -26 -19 -46 -18
-46 2 0 9 -6 30 -14 47 -7 18 -18 44 -24 60 -12 29 -28 33 -64 16 -19 -8 -58
0 -208 45 -288 86 -277 84 -300 60 -17 -17 -18 -23 -8 -37 7 -9 92 -46 188
-82 96 -36 178 -69 182 -73 4 -4 3 -22 -4 -39 -8 -21 -8 -44 -2 -74 7 -33 6
-53 -5 -81 -12 -33 -12 -40 3 -64 17 -25 17 -27 -3 -48 -14 -15 -21 -36 -21
-60 0 -23 -8 -48 -20 -63 -11 -14 -20 -36 -20 -48 0 -12 -12 -32 -26 -46 -14
-13 -34 -40 -45 -60 -44 -86 -78 -89 -199 -19 -47 28 -93 50 -103 50 -24 0
-180 -152 -213 -206 -33 -56 -30 -80 17 -144 52 -68 79 -111 79 -127 0 -18
-1360 -19 -1378 -1 -14 14 -17 664 -4 686 5 7 41 22 80 33 69 19 75 20 129 4
54 -16 58 -16 113 5 66 25 70 24 160 -45 80 -61 87 -64 165 -58 81 6 113 25
175 105 47 59 51 94 15 128 -27 25 -25 25 -99 -5 -17 -8 -19 -5 -13 31 4 21
10 49 13 61 6 23 -13 47 -71 89 l-30 22 28 29 c15 16 27 36 27 44 0 24 -41 57
-75 61 -54 6 -45 32 33 94 36 29 41 53 14 77 -16 15 -23 15 -76 1 -32 -8 -72
-14 -89 -12 l-32 3 48 22 c37 17 51 31 63 60 9 21 27 51 41 67 18 21 22 36 18
56 -4 18 -1 31 10 40 23 19 18 65 -11 99 -29 35 -27 51 15 118 17 28 33 41 46
40 11 0 60 8 109 18 79 17 91 22 107 49 18 30 21 31 77 28 49 -3 68 1 119 27
33 17 64 31 67 31 4 0 22 11 40 25 18 14 38 25 45 25 7 0 34 9 61 21 l48 21
21 -21 c32 -32 98 -28 166 10 49 28 65 31 182 38 71 4 138 13 151 20 27 14 44
45 36 65 -8 21 18 21 61 1z m-1095 -280 c-7 -9 -30 -15 -54 -15 -22 -1 -65 -9
-93 -19 -41 -14 -53 -15 -53 -5 0 26 79 50 174 53 33 1 37 -1 26 -14z m1350
-60 c0 -16 -55 -55 -77 -55 -13 0 56 69 70 70 4 0 7 -7 7 -15z m-395 -738
c127 -40 231 -76 233 -80 13 -29 -16 -25 -138 21 -74 27 -186 66 -247 87 -62
20 -113 39 -113 41 0 12 56 -3 265 -69z m182 -198 c-18 -32 -35 -59 -38 -59
-14 0 -27 109 -15 121 3 3 23 3 45 1 l39 -4 -31 -59z m-30 -124 c-16 -31 -47
-47 -47 -24 0 7 10 28 22 47 19 31 22 33 29 16 3 -10 2 -28 -4 -39z"/>
</g>
</svg>
